<svg width="50" height="10" viewBox="0 0 50 10" fill="none" xmlns="http://www.w3.org/2000/svg">
<g clip-path="url(#clip0_1801_551)">
<path d="M0 9.82835V0H8.23705C9.2999 0 10.1967 0.176443 10.9274 0.52933C11.6676 0.882215 12.2275 1.42108 12.607 2.14593C12.9962 2.86123 13.1906 3.7816 13.1906 4.90701C13.1906 6.0229 12.9962 6.948 12.607 7.6824C12.2275 8.40725 11.6676 8.9461 10.9274 9.299C10.1967 9.6519 9.2999 9.82835 8.23705 9.82835H0ZM2.54798 7.82545H8.2086C8.60715 7.82545 8.9535 7.76825 9.2477 7.6538C9.5419 7.53935 9.7886 7.37245 9.9879 7.1531C10.1872 6.9337 10.3343 6.6619 10.4291 6.3376C10.524 6.01335 10.5715 5.6414 10.5715 5.22175V4.62088C10.5715 4.1917 10.524 3.81498 10.4291 3.4907C10.3343 3.16643 10.1872 2.89461 9.9879 2.67525C9.7886 2.45589 9.5419 2.28899 9.2477 2.17454C8.9535 2.06009 8.60715 2.00286 8.2086 2.00286H2.54798V7.82545Z" fill="white"/>
<path d="M14.7548 9.82835V0H24.5861C25.3073 0 25.9099 0.138293 26.3939 0.414878C26.8779 0.681925 27.2385 1.05388 27.4757 1.53076C27.7224 1.99809 27.8458 2.52265 27.8458 3.10443C27.8458 3.7339 27.6987 4.29662 27.4045 4.79256C27.1198 5.27895 26.7165 5.66045 26.1946 5.93705L28.159 9.82835H25.3121L23.6893 6.36625H17.3028V9.82835H14.7548ZM17.3028 4.46352H24.0879C24.439 4.46352 24.719 4.34907 24.9277 4.12017C25.146 3.88174 25.2551 3.567 25.2551 3.17597C25.2551 2.91846 25.2077 2.6991 25.1128 2.51788C25.0179 2.33667 24.885 2.19838 24.7142 2.103C24.5434 1.99809 24.3346 1.94563 24.0879 1.94563H17.3028V4.46352Z" fill="white"/>
<path d="M33.8409 10C32.9014 10 32.09 9.85215 31.4068 9.5565C30.733 9.26085 30.2158 8.81735 29.8552 8.22605C29.4946 7.6347 29.3143 6.90035 29.3143 6.0229V0H31.8765V5.96565C31.8765 6.59515 32.0426 7.0911 32.3747 7.4535C32.7069 7.81595 33.1956 7.99715 33.8409 7.99715C34.4862 7.99715 34.9797 7.81595 35.3213 7.4535C35.6629 7.0911 35.8337 6.59515 35.8337 5.96565V0H38.3817V6.0229C38.3817 6.90035 38.2014 7.6347 37.8408 8.22605C37.4802 8.81735 36.963 9.26085 36.2892 9.5565C35.6155 9.85215 34.7993 10 33.8409 10Z" fill="white"/>
<path d="M40.3491 9.82835V0H42.8971V4.36338L46.7689 0H49.929L46.2849 4.02003L50.0001 9.82835H46.9824L44.5198 5.7654L42.8971 7.26755V9.82835H40.3491Z" fill="white"/>
</g>
<defs>
<clipPath id="clip0_1801_551">
<rect width="50" height="10" fill="white"/>
</clipPath>
</defs>
</svg>
